<svg width="64" height="64" viewBox="0 0 64 64" fill="none" xmlns="http://www.w3.org/2000/svg">
<g clip-path="url(#clip0_6_2)">
<rect width="64" height="64" fill="url(#paint0_linear_6_2)"/>
<mask id="path-1-outside-1_6_2" maskUnits="userSpaceOnUse" x="10" y="11" width="44" height="47" fill="black">
<rect fill="white" x="10" y="11" width="44" height="47"/>
<path d="M13.0824 56L20.0852 13.8182H38.375C41.5881 13.8182 44.2176 14.2507 46.2635 15.1158C48.3232 15.9808 49.7786 17.2029 50.63 18.782C51.495 20.361 51.7491 22.2216 51.392 24.3636C51.1174 25.9015 50.527 27.3089 49.6207 28.5859C48.7282 29.8492 47.5954 30.9202 46.2223 31.799C44.8629 32.6641 43.3456 33.2614 41.6705 33.5909L41.5881 34.0028C43.4006 34.0578 44.9796 34.5109 46.3253 35.3622C47.6709 36.1998 48.6596 37.367 49.2912 38.8636C49.9228 40.3466 50.0739 42.0767 49.7443 44.054C49.3598 46.3608 48.4193 48.4136 46.9226 50.2124C45.4259 52.0111 43.483 53.4254 41.0938 54.4553C38.7045 55.4851 35.9858 56 32.9375 56H13.0824ZM26.0994 46.8551H31.4545C33.3494 46.8551 34.8393 46.4912 35.924 45.7635C37.0225 45.0357 37.6747 43.9716 37.8807 42.571C38.0455 41.5824 37.9631 40.7448 37.6335 40.0582C37.304 39.3717 36.7479 38.8499 35.9652 38.4929C35.1825 38.1359 34.2008 37.9574 33.0199 37.9574H27.5L26.0994 46.8551ZM28.7358 30.8722H33.4318C34.4205 30.8722 35.3267 30.7143 36.1506 30.3984C36.9744 30.0826 37.6541 29.6226 38.1896 29.0185C38.7251 28.4143 39.0616 27.6866 39.1989 26.8352C39.4048 25.517 39.089 24.5147 38.2514 23.8281C37.4276 23.1416 36.3153 22.7983 34.9148 22.7983H30.054L28.7358 30.8722Z"/>
</mask>
<path d="M13.0824 56L20.0852 13.8182H38.375C41.5881 13.8182 44.2176 14.2507 46.2635 15.1158C48.3232 15.9808 49.7786 17.2029 50.63 18.782C51.495 20.361 51.7491 22.2216 51.392 24.3636C51.1174 25.9015 50.527 27.3089 49.6207 28.5859C48.7282 29.8492 47.5954 30.9202 46.2223 31.799C44.8629 32.6641 43.3456 33.2614 41.6705 33.5909L41.5881 34.0028C43.4006 34.0578 44.9796 34.5109 46.3253 35.3622C47.6709 36.1998 48.6596 37.367 49.2912 38.8636C49.9228 40.3466 50.0739 42.0767 49.7443 44.054C49.3598 46.3608 48.4193 48.4136 46.9226 50.2124C45.4259 52.0111 43.483 53.4254 41.0938 54.4553C38.7045 55.4851 35.9858 56 32.9375 56H13.0824ZM26.0994 46.8551H31.4545C33.3494 46.8551 34.8393 46.4912 35.924 45.7635C37.0225 45.0357 37.6747 43.9716 37.8807 42.571C38.0455 41.5824 37.9631 40.7448 37.6335 40.0582C37.304 39.3717 36.7479 38.8499 35.9652 38.4929C35.1825 38.1359 34.2008 37.9574 33.0199 37.9574H27.5L26.0994 46.8551ZM28.7358 30.8722H33.4318C34.4205 30.8722 35.3267 30.7143 36.1506 30.3984C36.9744 30.0826 37.6541 29.6226 38.1896 29.0185C38.7251 28.4143 39.0616 27.6866 39.1989 26.8352C39.4048 25.517 39.089 24.5147 38.2514 23.8281C37.4276 23.1416 36.3153 22.7983 34.9148 22.7983H30.054L28.7358 30.8722Z" fill="white"/>
<path d="M13.0824 56L11.1094 55.6725L10.723 58H13.0824V56ZM20.0852 13.8182V11.8182H18.3899L18.1122 13.4906L20.0852 13.8182ZM46.2635 15.1158L45.4846 16.9579L45.489 16.9597L46.2635 15.1158ZM50.63 18.782L48.8695 19.7311L48.8759 19.7429L50.63 18.782ZM51.392 24.3636L53.3609 24.7152L53.3629 24.7038L53.3648 24.6924L51.392 24.3636ZM49.6207 28.5859L47.9897 27.4284L47.9873 27.4319L49.6207 28.5859ZM46.2223 31.799L47.2961 33.4863L47.3004 33.4835L46.2223 31.799ZM41.6705 33.5909L41.2844 31.6285L39.9717 31.8868L39.7093 33.1987L41.6705 33.5909ZM41.5881 34.0028L39.6269 33.6106L39.163 35.9303L41.5275 36.0019L41.5881 34.0028ZM46.3253 35.3622L45.256 37.0524L45.2622 37.0563L45.2684 37.0602L46.3253 35.3622ZM49.2912 38.8636L47.4486 39.6413L47.4511 39.6474L49.2912 38.8636ZM49.7443 44.054L47.7715 43.7252L47.7715 43.7252L49.7443 44.054ZM41.0938 54.4553L40.3021 52.6186L40.3021 52.6186L41.0938 54.4553ZM26.0994 46.8551L24.1238 46.5441L23.76 48.8551H26.0994V46.8551ZM35.924 45.7635L34.8194 44.0962L34.8098 44.1026L35.924 45.7635ZM37.8807 42.571L35.9079 42.2422L35.9047 42.2611L35.902 42.28L37.8807 42.571ZM37.6335 40.0582L39.4366 39.1928L39.4366 39.1928L37.6335 40.0582ZM35.9652 38.4929L35.1352 40.3125L35.1352 40.3125L35.9652 38.4929ZM27.5 37.9574V35.9574H25.7902L25.5243 37.6464L27.5 37.9574ZM28.7358 30.8722L26.7619 30.5499L26.3828 32.8722H28.7358V30.8722ZM36.1506 30.3984L36.8664 32.2659L36.8664 32.2659L36.1506 30.3984ZM39.1989 26.8352L41.1734 27.1537L41.1749 27.144L39.1989 26.8352ZM38.2514 23.8281L36.9711 25.3646L36.9773 25.3698L36.9836 25.3749L38.2514 23.8281ZM30.054 22.7983V20.7983H28.354L28.0801 22.476L30.054 22.7983ZM15.0554 56.3275L22.0582 14.1457L18.1122 13.4906L11.1094 55.6725L15.0554 56.3275ZM20.0852 15.8182H38.375V11.8182H20.0852V15.8182ZM38.375 15.8182C41.4303 15.8182 43.7693 16.2326 45.4846 16.9579L47.0424 13.2737C44.6658 12.2688 41.7459 11.8182 38.375 11.8182V15.8182ZM45.489 16.9597C47.2334 17.6924 48.2839 18.6448 48.8695 19.7311L52.3904 17.8328C51.2734 15.7609 49.4129 14.2693 47.038 13.2718L45.489 16.9597ZM48.8759 19.7429C49.4838 20.8525 49.7182 22.2409 49.4193 24.0348L53.3648 24.6924C53.7799 22.2023 53.5063 19.8696 52.384 17.821L48.8759 19.7429ZM49.4232 24.0121C49.2005 25.259 48.7257 26.3913 47.9897 27.4284L51.2518 29.7434C52.3282 28.2266 53.0343 26.5441 53.3609 24.7152L49.4232 24.0121ZM47.9873 27.4319C47.2518 28.4728 46.3116 29.3673 45.1442 30.1145L47.3004 33.4835C48.8792 32.4731 50.2046 31.2256 51.2542 29.74L47.9873 27.4319ZM45.1486 30.1117C44.0116 30.8352 42.73 31.3441 41.2844 31.6285L42.0565 35.5533C43.9613 35.1786 45.7143 34.4929 47.2961 33.4863L45.1486 30.1117ZM39.7093 33.1987L39.6269 33.6106L43.5492 34.3951L43.6316 33.9831L39.7093 33.1987ZM41.5275 36.0019C43.0328 36.0475 44.253 36.4178 45.256 37.0524L47.3946 33.6721C45.7063 32.604 43.7684 32.068 41.6486 32.0038L41.5275 36.0019ZM45.2684 37.0602C46.2542 37.6737 46.9733 38.515 47.4486 39.6413L51.1338 38.086C50.3459 36.2189 49.0877 34.7259 47.3822 33.6643L45.2684 37.0602ZM47.4511 39.6474C47.9008 40.7032 48.0537 42.0323 47.7715 43.7252L51.7171 44.3828C52.0941 42.1211 51.9448 39.99 51.1312 38.0799L47.4511 39.6474ZM47.7715 43.7252C47.4454 45.682 46.6552 47.4068 45.3852 48.9331L48.46 51.4916C50.1834 49.4204 51.2743 47.0396 51.7171 44.3828L47.7715 43.7252ZM45.3852 48.9331C44.1114 50.464 42.4351 51.6992 40.3021 52.6186L41.8854 56.2919C44.5308 55.1516 46.7404 53.5582 48.46 51.4916L45.3852 48.9331ZM40.3021 52.6186C38.2021 53.5238 35.7597 54 32.9375 54V58C36.2119 58 39.207 57.4464 41.8854 56.2919L40.3021 52.6186ZM32.9375 54H13.0824V58H32.9375V54ZM26.0994 48.8551H31.4545V44.8551H26.0994V48.8551ZM31.4545 48.8551C33.5762 48.8551 35.5065 48.452 37.0383 47.4244L34.8098 44.1026C34.172 44.5305 33.1227 44.8551 31.4545 44.8551V48.8551ZM37.0286 47.4308C38.639 46.3639 39.5777 44.7776 39.8594 42.862L35.902 42.28C35.7717 43.1655 35.406 43.7076 34.8194 44.0962L37.0286 47.4308ZM39.8535 42.8998C40.0647 41.6322 39.9929 40.3518 39.4366 39.1928L35.8305 40.9237C35.9332 41.1378 36.0262 41.5326 35.9079 42.2422L39.8535 42.8998ZM39.4366 39.1928C38.8781 38.0294 37.9453 37.1979 36.7952 36.6733L35.1352 40.3125C35.5504 40.5019 35.7298 40.714 35.8305 40.9237L39.4366 39.1928ZM36.7952 36.6733C35.6739 36.1618 34.3867 35.9574 33.0199 35.9574V39.9574C34.0148 39.9574 34.6911 40.11 35.1352 40.3125L36.7952 36.6733ZM33.0199 35.9574H27.5V39.9574H33.0199V35.9574ZM25.5243 37.6464L24.1238 46.5441L28.0751 47.1661L29.4757 38.2684L25.5243 37.6464ZM28.7358 32.8722H33.4318V28.8722H28.7358V32.8722ZM33.4318 32.8722C34.6358 32.8722 35.7882 32.6793 36.8664 32.2659L35.4347 28.5309C34.8652 28.7492 34.2051 28.8722 33.4318 28.8722V32.8722ZM36.8664 32.2659C37.9618 31.846 38.9184 31.2114 39.6863 30.3451L36.6929 27.6918C36.3898 28.0338 35.9871 28.3192 35.4347 28.5309L36.8664 32.2659ZM39.6863 30.3451C40.4908 29.4374 40.9799 28.3529 41.1733 27.1537L37.2244 26.5168C37.1432 27.0202 36.9595 27.3912 36.6929 27.6918L39.6863 30.3451ZM41.1749 27.144C41.4607 25.3149 41.0387 23.5268 39.5193 22.2813L36.9836 25.3749C37.1393 25.5026 37.349 25.7192 37.2228 26.5265L41.1749 27.144ZM39.5318 22.2917C38.2509 21.2243 36.6381 20.7983 34.9148 20.7983V24.7983C35.9926 24.7983 36.6042 25.0589 36.9711 25.3646L39.5318 22.2917ZM34.9148 20.7983H30.054V24.7983H34.9148V20.7983ZM28.0801 22.476L26.7619 30.5499L30.7097 31.1944L32.0278 23.1206L28.0801 22.476Z" fill="black" mask="url(#path-1-outside-1_6_2)"/>
<path d="M48 51.5L44 46.5L48 42L51.5 46.5L48 51.5Z" fill="#D9D9D9" stroke="black"/>
<circle cx="26" cy="22" r="3" fill="black"/>
<circle cx="42" cy="22" r="3" fill="black"/>
<line x1="46.5" y1="45" x2="46.5" y2="47" stroke="black"/>
<line x1="48.5" y1="45" x2="48.5" y2="47" stroke="black"/>
</g>
<defs>
<linearGradient id="paint0_linear_6_2" x1="-5" y1="2.75206e-07" x2="60.5" y2="64" gradientUnits="userSpaceOnUse">
<stop stop-color="#E8D82F"/>
<stop offset="0.805" stop-color="#D06D17"/>
</linearGradient>
<clipPath id="clip0_6_2">
<rect width="64" height="64" fill="white"/>
</clipPath>
</defs>
</svg>
